<?xml version="1.0" encoding="utf-8"?>
<!-- Generator: Adobe Illustrator 19.0.0, SVG Export Plug-In . SVG Version: 6.00 Build 0)  -->
<svg version="1.1" id="Layer_1" xmlns="http://www.w3.org/2000/svg" xmlns:xlink="http://www.w3.org/1999/xlink" x="0px" y="0px"
	 viewBox="0 0 47.2 24.8" style="enable-background:new 0 0 47.2 24.8;" xml:space="preserve">
<style type="text/css">
	.st0{fill:#6181B6;}
</style>
<g id="XMLID_435_">
	<path id="XMLID_34318_" class="st0" d="M14,9.3h-1.5l-0.8,4.4h1.2c1,0,1.7-0.2,2.2-0.5c0.4-0.3,0.8-0.9,0.9-1.8
		c0.1-0.8,0.1-1.3-0.2-1.6C15.6,9.6,15.2,9.3,14,9.3z"/>
	<path id="XMLID_34317_" class="st0" d="M34.7,9.3h-1.5l-0.8,4.4h1.2c1,0,1.7-0.2,2.2-0.5c0.4-0.3,0.8-0.9,0.9-1.8
		c0.1-0.8,0.1-1.3-0.2-1.6C36.2,9.6,35.8,9.3,34.7,9.3z"/>
	<path id="XMLID_650_" class="st0" d="M23.6,0.3c-12.7,0-23,5.4-23,12.1s10.3,12.1,23,12.1c12.7,0,23-5.4,23-12.1S36.3,0.3,23.6,0.3
		z M25.1,16.3c-0.1,0-0.2,0-0.3-0.1c-0.1-0.1-0.1-0.2-0.1-0.3l1-5.4c0.1-0.7,0-0.9,0-0.9c-0.1-0.1-0.3-0.2-1.1-0.2h-1.8L21.6,16
		c0,0.2-0.2,0.3-0.4,0.3h-2.6c-0.1,0-0.2,0-0.3-0.1c-0.1-0.1-0.1-0.2-0.1-0.3l0.5-2.4c-0.3,0.5-0.7,1-1.1,1.4
		c-0.6,0.5-1.2,0.9-1.9,1.1c-0.7,0.2-1.5,0.3-2.6,0.3h-2l-0.6,2.9c0,0.2-0.2,0.3-0.4,0.3H7.6c-0.1,0-0.2,0-0.3-0.1
		c-0.1-0.1-0.1-0.2-0.1-0.3L9.6,7c0-0.2,0.2-0.3,0.4-0.3H15c1.6,0,2.8,0.4,3.6,1.3c0.4,0.5,0.7,1.1,0.8,1.7l1.2-6
		c0-0.2,0.2-0.3,0.4-0.3h2.6c0.1,0,0.2,0,0.3,0.1c0.1,0.1,0.1,0.2,0.1,0.3l-0.5,2.8h1.9c1.6,0,2.7,0.3,3.3,0.9
		c0.7,0.6,0.9,1.6,0.6,2.8c0,0-1.1,5.6-1.1,5.6c0,0.2-0.2,0.3-0.4,0.3H25.1z M40,11.7c-0.1,0.6-0.3,1.2-0.6,1.7
		c-0.3,0.5-0.7,1-1.1,1.4c-0.6,0.5-1.2,0.9-1.9,1.1c-0.7,0.2-1.5,0.3-2.6,0.3h-2l-0.6,2.9c0,0.2-0.2,0.3-0.4,0.3h-2.6
		c-0.1,0-0.2,0-0.3-0.1c-0.1-0.1-0.1-0.2-0.1-0.3L30.3,7c0-0.2,0.2-0.3,0.4-0.3h5.1c1.6,0,2.8,0.4,3.6,1.3
		C40.1,8.9,40.3,10.2,40,11.7z"/>
</g>
</svg>
