<?xml version="1.0" encoding="UTF-8"?>
<svg width="197px" height="147px" viewBox="0 0 197 147" version="1.1" xmlns="http://www.w3.org/2000/svg" xmlns:xlink="http://www.w3.org/1999/xlink">
    <!-- Generator: Sketch 42 (36781) - http://www.bohemiancoding.com/sketch -->
    <title>mariadb</title>
    <desc>Created with Sketch.</desc>
    <defs></defs>
    <g id="Page-1" stroke="none" stroke-width="1" fill="none" fill-rule="evenodd">
        <g id="mariadb" fill-rule="nonzero">
            <g id="Page-1">
                <g id="mariadb">
                    <path d="M131.36576,119.803837 L131.36576,145.878078 L128.079133,145.878078 L128.079133,141.410072 C125.81444,144.538267 122.274117,146.492154 118.423029,146.739226 C114.571942,146.986298 110.811471,145.500805 108.166482,142.687597 C105.609359,140.084628 104.196712,136.56688 104.242515,132.91621 C104.181424,129.267562 105.617558,125.753466 108.21572,123.194118 C110.674824,120.557834 114.128229,119.07885 117.730934,119.119052 C121.880076,119.064839 125.774825,121.11624 128.08044,124.570234 L128.08044,119.806484 L131.365731,119.806484 M128.276029,132.964253 C128.343895,130.155986 127.262872,127.441859 125.283495,125.450891 C123.377513,123.425948 120.705122,122.302335 117.926522,122.357634 C115.144733,122.316251 112.48067,123.479852 110.618787,125.549482 C106.610236,129.74296 106.631397,136.359219 110.666689,140.526911 C112.534681,142.553182 115.171093,143.694612 117.925186,143.669463 C120.676389,143.708347 123.321218,142.606661 125.232921,140.625473 C127.25902,138.601035 128.360169,135.828811 128.276029,132.964225" id="Shape" fill="#A57242"></path>
                    <path d="M138.854471,145.878078 L138.854471,110.621262 L146.162206,110.621262 C149.859581,110.470919 153.559411,110.851334 157.149081,111.750929 C159.419775,112.423496 161.502397,113.617226 163.231317,115.237183 C164.95881,116.848017 166.300241,118.828976 167.155313,121.031952 C168.12038,123.604405 168.58641,126.33756 168.528413,129.08486 C168.535511,132.099986 167.793861,135.06959 166.370172,137.726552 C165.084883,140.284795 163.070592,142.403917 160.582115,143.815841 C157.311437,145.373068 153.702236,146.08219 150.086287,145.878022 L138.854585,145.878022 M142.239688,142.539654 L146.310034,142.539654 C149.397224,142.630706 152.485864,142.41697 155.531183,141.901546 C157.39928,141.506576 159.137269,140.645042 160.583508,139.397073 C162.016251,138.129435 163.140452,136.550545 163.870135,134.781152 C164.653206,132.814545 165.036801,130.711375 164.998494,128.59461 C165.021055,126.380233 164.569615,124.186704 163.674547,122.161619 C162.871829,120.25971 161.607145,118.588757 159.995406,117.300588 C158.334917,115.998077 156.381731,115.121417 154.305712,114.746848 C151.147225,114.208939 147.944105,113.978729 144.74126,114.059445 L142.239688,114.059445 L142.239688,142.539768" id="Shape" fill="#A57242"></path>
                    <path d="M93.4459117,112.536895 C93.4379708,111.804189 93.7202434,111.098164 94.2309667,110.573305 C94.7415385,110.035761 95.4513726,109.733466 96.1922823,109.738044 C97.7240481,109.767156 98.9588127,111.003352 98.9878911,112.536895 C98.9767665,113.660702 98.290202,114.667015 97.2486334,115.086164 C96.2070649,115.505312 95.0158429,115.254658 94.2309383,114.451189 C93.7269597,113.94196 93.4447285,113.253761 93.4458833,112.536895 M94.5250034,119.803808 L97.9087426,119.803808 L97.9087426,145.878078 L94.5250034,145.878078 L94.5250034,119.803837" id="Shape" fill="#A57242"></path>
                    <polyline id="Shape" fill="#A57242" points="0.163211857 145.878078 5.16632771 110.621205 5.70533343 110.621205 20.026738 139.543678 34.2510021 110.621205 34.7898941 110.621205 39.8422199 145.878078 36.359862 145.878078 32.9268846 120.639041 20.4682906 145.878078 19.584759 145.878078 6.97984314 120.442002 3.54686571 145.878078 0.163126571 145.878078"></polyline>
                    <path d="M72.048323,119.803837 L72.048323,145.878078 L68.7616959,145.878078 L68.7616959,141.410072 C66.4970099,144.538276 62.9566848,146.492169 59.1055936,146.739242 C55.2545023,146.986314 51.4940289,145.500814 48.8490451,142.687597 C46.2919224,140.084628 44.8792749,136.56688 44.9250779,132.91621 C44.8639874,129.267562 46.3001215,125.753466 48.8982834,123.194118 C51.3573873,120.557834 54.810792,119.07885 58.4134969,119.119052 C62.5626395,119.064839 66.4573884,121.11624 68.7630036,124.570234 L68.7630036,119.806484 L72.0482946,119.806484 M68.9586206,132.964253 C69.0263371,130.156267 67.945872,127.442354 65.9673947,125.450891 C64.06141,123.425951 61.389021,122.302338 58.6104216,122.357634 C55.8285778,122.315978 53.1644068,123.479626 51.3026867,125.549482 C47.2953913,129.743672 47.31714,136.35922 51.351925,140.526911 C53.2199181,142.553179 55.8563292,143.694608 58.6104216,143.669463 C61.3616256,143.708354 64.0064575,142.606666 65.9181564,140.625473 C67.9434946,138.600725 69.0437019,135.828463 68.9586206,132.964225" id="Shape" fill="#A57242"></path>
                    <path d="M77.7247127,119.803837 L81.1576049,119.803837 L81.1576049,123.584497 C81.8540776,122.321081 82.7480222,121.177398 83.8055273,120.196834 C84.6117218,119.504533 85.637438,119.121622 86.6995559,119.116462 C87.8361628,119.131595 88.9502373,119.435995 89.9369447,120.001018 L88.1712177,122.849165 C87.7145514,122.564432 87.1882566,122.411393 86.6502891,122.406901 C85.5006315,122.475746 84.4406693,123.051489 83.7562606,123.97886 C82.8025929,125.170931 82.1319387,126.564363 81.794945,128.053926 C81.2593169,131.017715 81.0456165,134.030832 81.1575764,137.040657 L81.1575764,145.879502 L77.724599,145.879502 L77.724599,119.803837" id="Shape" fill="#A57242"></path>
                    <path d="M175.872138,110.621262 L182.83657,110.621262 C185.806076,110.412303 188.759628,111.20796 191.223425,112.880596 C193.177283,114.403095 194.259178,116.789562 194.117453,119.264292 C194.12655,120.769917 193.71895,122.248647 192.939856,123.536511 C192.138441,124.858912 190.983388,125.930399 189.605356,126.629768 C191.747517,127.233436 193.660401,128.464708 195.098125,130.165317 C196.376734,131.746163 197.054642,133.729368 197.011567,135.763047 C197.072398,138.537752 195.90548,141.197572 193.823416,143.029961 C191.534763,144.987738 188.590564,146.005338 185.58294,145.878107 L175.87211,145.878107 L175.87211,110.621262 M179.354325,114.058221 L179.354325,125.352243 L181.364879,125.352243 C183.746557,125.513726 186.125738,125.003276 188.23217,123.878875 C189.757824,122.857637 190.619238,121.095689 190.488887,119.262954 C190.488887,115.792676 188.134584,114.057765 183.425979,114.058221 L179.354297,114.058221 M179.354297,128.887792 L179.354297,142.441177 L183.720044,142.441177 C185.596813,142.536477 187.475143,142.2868 189.262052,141.704507 C190.441033,141.205027 191.45951,140.389569 192.205376,139.347892 C192.914404,138.39539 193.308859,137.245109 193.333734,136.057453 C193.403384,134.004905 192.446808,132.052582 190.782924,130.851382 C189.895884,130.162389 188.878204,129.661116 187.791698,129.378014 C185.660053,128.961894 183.487092,128.796947 181.317148,128.88654 L179.354496,128.88654" id="Shape" fill="#A57242"></path>
                    <path d="M170.303521,0.928785385 C167.985598,1.00338308 168.71877,1.67211538 163.709002,2.90569538 C158.649996,4.15259538 152.470648,3.77027154 147.023108,6.05758308 C130.761681,12.88488 127.497683,36.2229431 112.71457,44.5822392 C101.663816,50.8313969 90.5146986,51.3296162 80.491097,54.4748438 C73.2210354,56.9679349 66.5080874,60.8602629 60.7301411,65.9327192 C56.0969379,69.9305123 55.9771967,73.4460815 51.136408,78.4616592 C45.9589966,83.8249231 30.559808,78.5522523 23.5793997,86.7610438 C25.8280997,89.0363731 26.8127801,89.6744808 31.2437426,89.0843308 C30.3269496,90.8254654 24.9193236,92.2921738 25.9771791,94.8525738 C27.0908969,97.54754 40.1642019,99.3739169 52.0479133,92.1909362 C57.5819327,88.84588 61.990266,84.0234708 70.6099794,82.8726285 C81.7645264,81.3846023 94.612933,83.8277977 107.52519,85.6914592 C105.610441,91.4065362 101.766301,95.2084 98.687259,99.7603677 C97.7331961,100.788797 100.602009,100.903355 103.875331,100.28258 C108.967362,99.2852279 113.880167,97.5252182 118.448215,95.0618515 C123.906501,91.8806485 124.734028,83.7238562 131.431032,81.9587569 C135.162083,87.70036 145.312021,89.0578331 151.609774,84.4645392 C146.083743,82.8979308 144.55619,71.12177 146.421702,65.93289 C148.188765,61.0212254 149.934535,53.1641615 151.713567,46.6712308 C153.624336,39.6973854 154.328228,30.9092308 156.640835,27.3562915 C160.119071,22.01167 163.963211,20.1772954 167.300384,17.1639585 C171.435527,14.227126 173.803567,9.39336541 173.591627,4.32197 C173.721844,3.40649104 173.421627,2.48220499 172.778481,1.8185037 C172.135333,1.15480242 171.221636,0.826379227 170.303692,0.928956154 L170.303692,0.928956154 L170.303521,0.928785385 Z" id="Shape" fill="#002B64"></path>
                    <path d="M28.3802179,94.3609577 C35.3224048,95.5629468 42.4664994,94.5298539 48.7851946,91.4102362 C54.5680493,88.8991031 60.151307,83.7236854 66.9800204,81.5296138 C77.0088529,78.3084508 88.0050527,81.5335985 98.7258081,82.1770285 C101.312634,82.3552873 103.909858,82.3151856 106.489964,82.0571485 C110.483155,79.5993238 110.400626,70.4087515 114.287352,69.5668308 C114.172927,82.4620992 108.891609,90.1886385 103.369672,97.6713477 C113.60875,95.9785354 122.341645,89.3097257 126.679367,79.8710746 C128.130186,77.0502114 129.374903,74.1277917 130.403737,71.1267792 C132.069651,72.4069792 131.124941,76.3022254 131.963215,78.4136731 C139.980072,73.9429631 144.570803,63.7386192 147.611238,53.4184085 C151.128052,41.4742962 152.567788,29.38096 154.836474,25.8467485 C157.231037,22.6972599 160.223139,20.0520795 163.641143,18.0629446 C167.215183,15.55184 170.403334,12.9354846 170.952972,8.15169769 C167.183343,7.80267385 166.31178,6.9301 165.754267,5.02778769 C164.04156,5.95497328 162.11751,6.42046806 160.170896,6.37860077 C158.470384,6.43054308 156.600864,6.35460769 154.318875,6.58921615 C135.442786,8.53029308 133.043699,29.3597846 120.944414,41.1680215 C120.052429,42.0334652 119.104299,42.8389546 118.106219,43.5792262 C113.714091,46.6238611 108.932341,49.062321 103.889943,50.8288354 C96.1524254,53.7888354 88.7954523,53.9994508 81.5356196,56.5544431 C76.1948471,58.4358996 71.1139356,60.9877939 66.4144624,64.1490631 C65.3193654,64.8976015 64.2880053,65.6663762 63.3407369,66.4430631 C61.0471459,68.4141123 59.0631275,70.7197357 57.4554256,73.2823708 C55.7917037,75.9608363 53.8536106,78.4583628 51.6725709,80.7344554 C47.6620954,84.6776308 32.6727331,81.8841023 27.3968451,85.5408692 C26.8282396,85.9186048 26.3575762,86.4263788 26.0237451,87.0222354 C28.9031899,88.3317508 30.8259279,87.5284523 34.137828,87.8948092 C34.5729273,91.0412323 27.3051061,92.9115823 28.3802179,94.3609577 L28.3802179,94.3609577 Z" id="Shape" fill="#C49A6C"></path>
                    <path d="M142.742419,71.6930785 C142.967289,75.3032254 145.060343,82.4648885 146.908569,84.2060231 C143.2893,85.0865946 137.055369,83.6318685 135.455977,81.0754531 C136.278387,77.3853862 140.553647,74.0109008 142.742419,71.6930785 L142.742419,71.6930785 Z" id="Shape" fill="#C49A6C"></path>
                    <path d="M148.043665,14.4035308 C149.473108,15.6221131 151.512193,15.8127624 153.142293,14.8802395 C154.772392,13.9477166 155.643632,12.0921723 155.320783,10.2405469 C151.169273,9.89684538 148.763591,11.3075985 148.043665,14.4035308 L148.043665,14.4035308 Z" id="Shape" fill="#002B64"></path>
                    <path d="M166.673591,9.00298231 C165.335506,11.1728884 164.618813,13.6692275 164.601802,16.2192915 C164.596485,16.8720569 164.106832,17.3183338 164.098815,16.3125315 C164.089294,13.6936902 164.80255,11.1231124 166.159886,8.88441154 C166.64556,8.01983538 166.936953,8.37685692 166.673505,9.00298231 L166.673505,9.00298231 L166.673591,9.00298231 Z" id="Shape" fill="#002B64"></path>
                    <path d="M165.957731,8.44081 C164.261406,10.7363343 163.164619,13.4196793 162.766936,16.2472408 C162.70573,16.8959931 162.17747,17.2983254 162.258633,16.2951985 C162.640106,13.396699 163.740758,10.6400487 165.460089,8.27695692 C166.014957,7.45900077 166.277097,7.84001538 165.957731,8.44081 L165.957731,8.44081 Z" id="Shape" fill="#002B64"></path>
                    <path d="M165.30575,7.69614231 C163.110573,10.0233696 161.495685,12.8369369 160.592691,15.9075523 C160.475593,16.5483069 159.916745,16.9053285 160.081744,15.9128746 C160.988532,12.7758874 162.61109,9.89279758 164.821384,7.49110538 C165.444112,6.72244462 165.671654,7.12343923 165.305721,7.69625615 L165.305721,7.69625615 L165.30575,7.69614231 Z" id="Shape" fill="#002B64"></path>
                    <path d="M164.722936,6.86486615 C162.176894,9.38427778 160.137437,12.369449 158.715211,15.6584285 C158.508962,16.2765562 157.904997,16.55232 158.208244,15.5918285 C159.620995,12.2238568 161.681258,9.1667658 164.27186,6.59442462 C164.99838,5.91903231 165.166023,6.34931385 164.722936,6.86480923 L164.722936,6.86480923 L164.722936,6.86486615 Z" id="Shape" fill="#002B64"></path>
                </g>
            </g>
        </g>
    </g>
</svg>